HIERARCHY
ROOT hips
{
	OFFSET 0.000000 104.274902 0.000000
	CHANNELS 6 Xposition Yposition Zposition Xrotation Yrotation Zrotation
	JOINT spine
	{
		OFFSET 0.000000 10.181549 0.131524
		CHANNELS 6 Xposition Yposition Zposition Xrotation Yrotation Zrotation
		JOINT chest
		{
			OFFSET 0.000000 9.893990 -1.470706
			CHANNELS 3 Xrotation Yrotation Zrotation
			JOINT upperChest
			{
				OFFSET 0.000000 9.220787 -1.370637
				CHANNELS 3 Xrotation Yrotation Zrotation
				JOINT neck
				{
					OFFSET 0.000000 16.740372 -2.049022
					CHANNELS 6 Xposition Yposition Zposition Xrotation Yrotation Zrotation
					JOINT head
					{
						OFFSET 0.000000 9.617859 1.684976
						CHANNELS 6 Xposition Yposition Zposition Xrotation Yrotation Zrotation
						JOINT headEnd
						{
							OFFSET 0.000000 22.037384 7.501072
							CHANNELS 6 Xposition Yposition Zposition Xrotation Yrotation Zrotation
							End Site
							{
								OFFSET 0.000000 23.106567 -2.828246
							}
						}
					}
				}
				JOINT rightShoulder
				{
					OFFSET -4.570000 11.014877 -2.160840
					CHANNELS 6 Xposition Yposition Zposition Xrotation Yrotation Zrotation
					JOINT rightUpperArm
					{
						OFFSET -10.592867 -0.524796 -2.232105
						CHANNELS 3 Xrotation Yrotation Zrotation
						JOINT rightLowerArm
						{
							OFFSET -27.841497 0.000000 -0.000002
							CHANNELS 3 Xrotation Yrotation Zrotation
							JOINT rightHand
							{
								OFFSET -28.328812 0.000000 -0.000001
								CHANNELS 3 Xrotation Yrotation Zrotation
								JOINT rightThumbProximal
								{
									OFFSET -2.464798 -1.573990 2.681911
									CHANNELS 6 Xposition Yposition Zposition Xrotation Yrotation Zrotation
									JOINT rightThumbIntermediate
									{
										OFFSET -3.244781 -1.873383 1.873376
										CHANNELS 3 Xrotation Yrotation Zrotation
										JOINT rightThumbDistal
										{
											OFFSET -2.646263 -1.527817 1.527818
											CHANNELS 6 Xposition Yposition Zposition Xrotation Yrotation Zrotation
											JOINT rightHandThumb4
											{
												OFFSET -1.994591 -1.151581 1.151575
												CHANNELS 6 Xposition Yposition Zposition Xrotation Yrotation Zrotation
												End Site
												{
													OFFSET -1.860176 -1.142715 1.365483
												}
											}
										}
									}
								}
								JOINT rightIndexProximal
								{
									OFFSET -9.108299 -0.517883 2.259803
									CHANNELS 6 Xposition Yposition Zposition Xrotation Yrotation Zrotation
									JOINT rightIndexIntermediate
									{
										OFFSET -3.699997 0.000000 0.000000
										CHANNELS 3 Xrotation Yrotation Zrotation
										JOINT rightIndexDistal
										{
											OFFSET -2.850006 0.000000 0.000000
											CHANNELS 3 Xrotation Yrotation Zrotation
											JOINT rightHandIndex4
											{
												OFFSET -2.772194 0.000000 0.000000
												CHANNELS 3 Xrotation Yrotation Zrotation
												End Site
												{
													OFFSET -2.772202 0.000000 -0.000484
												}
											}
										}
									}
								}
								JOINT rightMiddleProximal
								{
									OFFSET -9.532501 0.000000 -0.000000
									CHANNELS 6 Xposition Yposition Zposition Xrotation Yrotation Zrotation
									JOINT rightMiddleIntermediate
									{
										OFFSET -3.699997 0.000000 0.000000
										CHANNELS 3 Xrotation Yrotation Zrotation
										JOINT rightMiddleDistal
										{
											OFFSET -2.949997 0.000000 0.000000
											CHANNELS 3 Xrotation Yrotation Zrotation
											JOINT rightHandMiddle4
											{
												OFFSET -2.946594 0.000000 0.000000
												CHANNELS 3 Xrotation Yrotation Zrotation
												End Site
												{
													OFFSET -2.946602 0.000000 -0.000982
												}
											}
										}
									}
								}
								JOINT rightRingProximal
								{
									OFFSET -9.103600 -0.043106 -1.865100
									CHANNELS 6 Xposition Yposition Zposition Xrotation Yrotation Zrotation
									JOINT rightRingIntermediate
									{
										OFFSET -3.379303 0.000000 0.000000
										CHANNELS 3 Xrotation Yrotation Zrotation
										JOINT rightRingDistal
										{
											OFFSET -2.889694 0.000000 0.000000
											CHANNELS 3 Xrotation Yrotation Zrotation
											JOINT rightHandRing4
											{
												OFFSET -2.638802 0.000000 0.000000
												CHANNELS 3 Xrotation Yrotation Zrotation
												End Site
												{
													OFFSET -2.638802 0.000000 0.004218
												}
											}
										}
									}
								}
								JOINT rightLittleProximal
								{
									OFFSET -8.076698 -0.486725 -3.806299
									CHANNELS 6 Xposition Yposition Zposition Xrotation Yrotation Zrotation
									JOINT rightLittleIntermediate
									{
										OFFSET -3.600006 0.000000 0.000000
										CHANNELS 3 Xrotation Yrotation Zrotation
										JOINT rightLittleDistal
										{
											OFFSET -2.099998 0.000000 0.000000
											CHANNELS 3 Xrotation Yrotation Zrotation
											JOINT rightHandPinky4
											{
												OFFSET -2.115791 0.000000 0.000000
												CHANNELS 3 Xrotation Yrotation Zrotation
												End Site
												{
													OFFSET -2.115799 0.000000 0.000174
												}
											}
										}
									}
								}
							}
						}
					}
				}
				JOINT leftShoulder
				{
					OFFSET 4.570400 11.014679 -2.160816
					CHANNELS 6 Xposition Yposition Zposition Xrotation Yrotation Zrotation
					JOINT leftUpperArm
					{
						OFFSET 10.592373 -0.524597 -2.232116
						CHANNELS 3 Xrotation Yrotation Zrotation
						JOINT leftLowerArm
						{
							OFFSET 27.841488 0.000000 0.000001
							CHANNELS 3 Xrotation Yrotation Zrotation
							JOINT leftHand
							{
								OFFSET 28.328808 0.000000 -0.000000
								CHANNELS 3 Xrotation Yrotation Zrotation
								JOINT leftThumbProximal
								{
									OFFSET 2.466103 -1.576202 2.681698
									CHANNELS 6 Xposition Yposition Zposition Xrotation Yrotation Zrotation
									JOINT leftThumbIntermediate
									{
										OFFSET 3.243317 -1.872528 1.872530
										CHANNELS 3 Xrotation Yrotation Zrotation
										JOINT leftThumbDistal
										{
											OFFSET 2.647881 -1.528763 1.528754
											CHANNELS 6 Xposition Yposition Zposition Xrotation Yrotation Zrotation
											JOINT leftHandThumb4
											{
												OFFSET 1.998924 -1.154083 1.154080
												CHANNELS 6 Xposition Yposition Zposition Xrotation Yrotation Zrotation
												End Site
												{
													OFFSET 1.884041 -1.149155 1.337651
												}
											}
										}
									}
								}
								JOINT leftIndexProximal
								{
									OFFSET 9.109299 -0.518005 2.259900
									CHANNELS 6 Xposition Yposition Zposition Xrotation Yrotation Zrotation
									JOINT leftIndexIntermediate
									{
										OFFSET 3.699997 0.000000 0.000000
										CHANNELS 3 Xrotation Yrotation Zrotation
										JOINT leftIndexDistal
										{
											OFFSET 2.850006 0.000000 0.000000
											CHANNELS 3 Xrotation Yrotation Zrotation
											JOINT leftHandIndex4
											{
												OFFSET 2.774895 0.000000 0.000000
												CHANNELS 3 Xrotation Yrotation Zrotation
												End Site
												{
													OFFSET 2.774902 0.000000 -0.000072
												}
											}
										}
									}
								}
								JOINT leftMiddleProximal
								{
									OFFSET 9.533401 0.000000 0.000000
									CHANNELS 6 Xposition Yposition Zposition Xrotation Yrotation Zrotation
									JOINT leftMiddleIntermediate
									{
										OFFSET 3.699997 0.000000 0.000000
										CHANNELS 3 Xrotation Yrotation Zrotation
										JOINT leftMiddleDistal
										{
											OFFSET 2.949997 0.000000 0.000000
											CHANNELS 3 Xrotation Yrotation Zrotation
											JOINT leftHandMiddle4
											{
												OFFSET 2.952896 0.000000 0.000000
												CHANNELS 3 Xrotation Yrotation Zrotation
												End Site
												{
													OFFSET 2.952904 0.000000 0.000165
												}
											}
										}
									}
								}
								JOINT leftRingProximal
								{
									OFFSET 9.104500 -0.042999 -1.865101
									CHANNELS 6 Xposition Yposition Zposition Xrotation Yrotation Zrotation
									JOINT leftRingIntermediate
									{
										OFFSET 3.149994 0.000000 0.000000
										CHANNELS 3 Xrotation Yrotation Zrotation
										JOINT leftRingDistal
										{
											OFFSET 2.950005 0.000000 0.000000
											CHANNELS 3 Xrotation Yrotation Zrotation
											JOINT leftHandRing4
											{
												OFFSET 2.644302 0.000000 0.000000
												CHANNELS 3 Xrotation Yrotation Zrotation
												End Site
												{
													OFFSET 2.644302 0.000000 0.000083
												}
											}
										}
									}
								}
								JOINT leftLittleProximal
								{
									OFFSET 8.077805 -0.486893 -3.806302
									CHANNELS 6 Xposition Yposition Zposition Xrotation Yrotation Zrotation
									JOINT leftLittleIntermediate
									{
										OFFSET 3.600006 0.000000 0.000000
										CHANNELS 3 Xrotation Yrotation Zrotation
										JOINT leftLittleDistal
										{
											OFFSET 2.099998 0.000000 0.000000
											CHANNELS 3 Xrotation Yrotation Zrotation
											JOINT leftHandPinky4
											{
												OFFSET 2.125496 0.000000 0.000000
												CHANNELS 3 Xrotation Yrotation Zrotation
												End Site
												{
													OFFSET 2.125504 0.000000 -0.001254
												}
											}
										}
									}
								}
							}
						}
					}
				}
			}
		}
	}
	JOINT rightUpperLeg
	{
		OFFSET -8.207800 -6.751701 -1.599544
		CHANNELS 6 Xposition Yposition Zposition Xrotation Yrotation Zrotation
		JOINT rightLowerLeg
		{
			OFFSET 0.000004 -44.370152 0.345934
			CHANNELS 3 Xrotation Yrotation Zrotation
			JOINT rightFoot
			{
				OFFSET 0.000004 -44.423664 -3.043535
				CHANNELS 3 Xrotation Yrotation Zrotation
				JOINT rightToes
				{
					OFFSET 0.000001 -8.728691 10.710592
					CHANNELS 3 Xrotation Yrotation Zrotation
					JOINT rightToesEnd
					{
						OFFSET 0.000000 -0.000665 9.278101
						CHANNELS 3 Xrotation Yrotation Zrotation
						End Site
						{
							OFFSET 0.000000 -0.000665 9.278103
						}
					}
				}
			}
		}
	}
	JOINT leftUpperLeg
	{
		OFFSET 8.207800 -6.751701 -1.599544
		CHANNELS 6 Xposition Yposition Zposition Xrotation Yrotation Zrotation
		JOINT leftLowerLeg
		{
			OFFSET 0.000004 -44.370037 0.346940
			CHANNELS 3 Xrotation Yrotation Zrotation
			JOINT leftFoot
			{
				OFFSET 0.000004 -44.423611 -3.044388
				CHANNELS 3 Xrotation Yrotation Zrotation
				JOINT leftToes
				{
					OFFSET 0.000001 -8.728690 10.710592
					CHANNELS 3 Xrotation Yrotation Zrotation
					JOINT leftToesEnd
					{
						OFFSET 0.000000 -0.000680 9.278101
						CHANNELS 3 Xrotation Yrotation Zrotation
						End Site
						{
							OFFSET 0.000000 -0.000680 9.278101
						}
					}
				}
			}
		}
	}
}
MOTION
Frames: 4
Frame Time: 0.033333
0.145437 103.385376 1.423461 -3.753025 -5.218092 -3.769917 -0.000000 10.181549 0.131524 3.296628 1.543092 2.742657 1.151891 0.339457 1.552798 1.126014 0.361543 1.555886 0.000001 16.740376 -2.049021 5.626309 -0.078963 0.454683 -0.000000 9.617836 1.684975 -7.563342 1.375725 -0.080565 -0.000001 22.037354 7.501077 -0.000000 0.000000 -0.000000 -4.569996 11.014881 -2.160841 1.203183 15.343670 14.705985 13.158777 27.555102 58.785218 0.000007 6.693737 0.000004 -20.179049 -0.514130 6.782782 -2.464782 -1.573995 2.681909 -1.665246 -0.174471 -4.219028 12.710979 -29.825380 -16.130859 -2.646267 -1.527816 1.527821 -15.549426 -3.559425 -12.707125 -1.994598 -1.151581 1.151575 0.000001 -0.000002 0.000003 -9.108294 -0.517886 2.259803 0.038562 1.262298 6.823725 0.213720 -1.396030 17.407039 0.046039 -0.653851 8.053225 0.000005 0.000001 0.000005 -9.532495 0.000001 0.000000 -0.136229 -2.205099 14.998873 0.214439 -1.398347 17.436898 0.239781 -1.476526 18.446275 -0.000001 0.000002 0.000004 -9.103591 -0.043093 -1.865100 0.030604 -3.075762 20.451002 0.308448 -1.668277 20.948520 0.225810 -1.434042 17.897082 -0.000001 -0.000001 0.000007 -8.076680 -0.486741 -3.806300 0.748872 -4.885239 26.473759 0.214469 -1.398377 17.437251 0.192995 -1.328166 16.535809 0.000001 -0.000002 -0.000003 4.570402 11.014684 -2.160816 1.049450 -17.442068 -12.319451 3.916267 -19.989240 -69.765239 0.000001 -1.459369 -0.000002 -33.230506 -1.364895 -6.186629 2.466104 -1.576206 2.681697 -0.662916 2.160399 4.832522 11.853550 25.421652 17.058278 2.647882 -1.528743 1.528745 -13.813929 3.537295 9.036002 1.998925 -1.154082 1.154077 -0.000000 0.000002 -0.000000 9.109310 -0.518017 2.259898 0.019847 -0.969571 -7.593546 0.267843 1.752923 -17.375718 0.057677 0.820970 -8.038013 0.000002 0.000000 0.000002 9.533400 0.000004 -0.000000 -0.076319 2.665805 -15.696827 0.268745 1.755830 -17.405538 0.300503 1.854010 -18.413324 0.000000 -0.000000 0.000004 9.104510 -0.043002 -1.865103 0.136862 3.641810 -21.133507 0.386608 2.094826 -20.911908 0.283017 1.800671 -17.864995 0.000001 -0.000000 0.000002 8.077808 -0.486888 -3.806303 0.927689 5.555972 -27.128034 0.268777 1.755871 -17.405883 0.241883 1.667724 -16.505874 0.000001 0.000001 -0.000002 -8.207800 -6.751717 -1.599544 0.649014 -10.391029 3.516226 7.326378 -9.763696 -3.277841 -3.648935 -1.650133 3.201997 -7.282875 -0.000005 -0.000001 -0.000001 0.000000 0.000000 8.207799 -6.751708 -1.599545 -10.775298 14.739031 10.344561 12.136489 2.032046 4.168243 1.287468 0.513464 -7.110653 -4.928526 0.000003 0.000001 0.000000 -0.000000 0.000000 
0.422593 103.392357 1.334135 -3.050942 -6.119526 -3.658710 -0.000001 10.181556 0.131522 3.427225 1.655570 2.816655 1.205577 0.357724 1.579361 1.179615 0.379752 1.582896 -0.000000 16.740370 -2.049021 5.423218 -0.024142 0.436799 0.000001 9.617858 1.684982 -8.133391 1.766417 -0.412627 0.000001 22.037354 7.501075 0.000000 0.000000 -0.000000 -4.570003 11.014878 -2.160839 1.181090 15.331835 14.626753 13.418636 26.288450 57.517808 0.000010 9.473370 0.000003 -19.991598 0.121397 3.861893 -2.464817 -1.573998 2.681909 -1.665248 -0.174475 -4.219046 12.695742 -29.052961 -16.217540 -2.646273 -1.527815 1.527811 -15.565129 -3.511318 -12.786300 -1.994594 -1.151582 1.151578 0.000001 -0.000003 0.000001 -9.108319 -0.517879 2.259804 -0.062891 1.271532 7.667942 0.214664 -1.399041 17.445796 0.046487 -0.657034 8.092692 -0.000001 -0.000001 -0.000001 -9.532510 -0.000007 0.000001 -0.165356 -2.165066 15.680781 0.216027 -1.403364 17.501496 0.241461 -1.481560 18.511513 -0.000001 0.000000 -0.000002 -9.103623 -0.043096 -1.865101 -0.048411 -2.905908 21.086230 0.312147 -1.677903 21.075204 0.229007 -1.443886 18.024178 -0.000002 0.000001 0.000000 -8.076726 -0.486724 -3.806299 0.504930 -4.606837 27.217308 0.213428 -1.395060 17.394590 0.191929 -1.324572 16.489701 0.000000 -0.000002 0.000003 4.570399 11.014711 -2.160812 1.188948 -17.441124 -11.936361 3.483836 -21.142028 -68.992588 0.000003 -1.584882 0.000006 -33.405639 -1.097247 -5.629431 2.466093 -1.576211 2.681700 -0.662920 2.160404 4.832520 12.194863 25.749175 16.881185 2.647882 -1.528741 1.528750 -13.866624 3.306082 9.111518 1.998921 -1.154088 1.154072 -0.000000 -0.000003 -0.000002 9.109281 -0.518010 2.259899 0.115309 -0.666080 -8.422760 0.267793 1.752766 -17.374102 0.057649 0.820807 -8.036394 -0.000001 -0.000000 -0.000002 9.533398 0.000010 0.000000 -0.050849 2.798416 -16.256518 0.267688 1.752424 -17.370660 0.299366 1.850601 -18.378244 0.000000 -0.000001 0.000005 9.104490 -0.043002 -1.865101 0.149610 3.695055 -21.621814 0.388291 2.099247 -20.958166 0.284480 1.805190 -17.911360 -0.000001 0.000000 0.000002 8.077808 -0.486891 -3.806301 0.851143 5.422652 -27.452057 0.270712 1.762034 -17.468984 0.243724 1.673920 -16.569013 -0.000001 -0.000003 0.000002 -8.207800 -6.751715 -1.599544 -0.328185 -10.251669 3.193148 7.325263 -9.514219 -3.194410 -3.400481 -1.166977 3.266913 -7.292724 -0.000009 -0.000001 0.000000 0.000001 0.000000 8.207799 -6.751699 -1.599545 -11.475751 15.110651 10.449829 12.161464 2.510920 3.681387 1.260442 0.517350 -6.721249 -4.928526 0.000001 0.000001 -0.000000 0.000001 0.000000 
0.699749 103.399315 1.244809 -2.345757 -7.019624 -3.536168 -0.000000 10.181547 0.131523 3.557684 1.768216 2.890402 1.259254 0.376015 1.605907 1.233208 0.397988 1.609889 -0.000000 16.740376 -2.049022 5.220141 0.030744 0.419110 -0.000000 9.617840 1.684971 -8.701322 2.160404 -0.740876 0.000001 22.037369 7.501077 -0.000000 0.000000 -0.000000 -4.570004 11.014893 -2.160842 1.158979 15.320024 14.547514 13.644814 25.016734 56.269892 0.000009 12.254640 0.000001 -19.771847 0.746964 0.936697 -2.464791 -1.574002 2.681911 -1.665247 -0.174469 -4.219056 12.681933 -28.280484 -16.303347 -2.646264 -1.527807 1.527809 -15.580771 -3.463191 -12.865457 -1.994594 -1.151585 1.151580 -0.000002 -0.000002 0.000001 -9.108302 -0.517878 2.259804 -0.164467 1.279272 8.512222 0.215616 -1.402052 17.484552 0.046937 -0.660216 8.132158 0.000001 -0.000001 0.000002 -9.532505 0.000010 0.000000 -0.194960 -2.125379 16.362714 0.217619 -1.408379 17.566089 0.243142 -1.486589 18.576750 -0.000003 0.000002 0.000002 -9.103604 -0.043092 -1.865100 -0.129294 -2.736930 21.721624 0.315863 -1.687520 21.201877 0.232221 -1.453722 18.151265 -0.000002 0.000004 0.000005 -8.076702 -0.486733 -3.806296 0.257468 -4.331600 27.961807 0.212388 -1.391744 17.351933 0.190870 -1.320978 16.443587 -0.000001 -0.000000 0.000000 4.570402 11.014688 -2.160815 1.328438 -17.439283 -11.553274 3.064680 -22.300364 -68.223003 -0.000000 -1.710395 0.000014 -33.583367 -0.831307 -5.071439 2.466084 -1.576201 2.681698 -0.662918 2.160404 4.832520 12.538262 26.075743 16.701426 2.647885 -1.528755 1.528745 -13.919001 3.074806 9.186801 1.998922 -1.154088 1.154070 -0.000003 0.000003 -0.000002 9.109287 -0.518015 2.259900 0.215159 -0.363985 -9.252488 0.267745 1.752609 -17.372496 0.057623 0.820644 -8.034779 0.000001 0.000000 -0.000001 9.533390 0.000000 0.000000 -0.024078 2.930777 -16.816353 0.266634 1.749018 -17.335789 0.298232 1.847193 -18.343161 -0.000001 -0.000002 -0.000002 9.104485 -0.043003 -1.865099 0.162816 3.748191 -22.110181 0.389979 2.103665 -21.004411 0.285947 1.809707 -17.957723 0.000000 -0.000000 -0.000002 8.077806 -0.486884 -3.806300 0.773861 5.289763 -27.776192 0.272655 1.768196 -17.532086 0.245570 1.680118 -16.632139 0.000000 0.000001 0.000003 -8.207801 -6.751710 -1.599544 -1.304208 -10.106901 2.872650 7.323781 -9.264752 -3.111033 -3.152607 -0.683532 3.329728 -7.302586 -0.000009 -0.000002 0.000000 -0.000000 -0.000000 8.207800 -6.751694 -1.599544 -12.178183 15.481020 10.559995 12.190517 2.989580 3.194107 1.233393 0.521053 -6.331840 -4.928526 -0.000004 0.000001 -0.000000 0.000001 0.000000 
0.976905 103.406273 1.155483 -1.637248 -7.918065 -3.402213 -0.000000 10.181562 0.131524 3.688006 1.881028 2.963895 1.312924 0.394331 1.632436 1.286792 0.416247 1.636865 -0.000001 16.740347 -2.049020 5.017083 0.085691 0.401615 -0.000000 9.617821 1.684978 -9.267125 2.557600 -1.065278 0.000001 22.037384 7.501073 -0.000000 0.000000 -0.000000 -4.569999 11.014862 -2.160840 1.136855 15.308254 14.468274 13.838380 23.741196 55.040253 0.000008 15.034271 -0.000000 -19.520582 1.360081 -1.989451 -2.464794 -1.574004 2.681910 -1.665244 -0.174473 -4.219059 12.669537 -27.508018 -16.388339 -2.646265 -1.527804 1.527808 -15.596336 -3.415048 -12.944594 -1.994598 -1.151586 1.151572 -0.000000 -0.000000 -0.000000 -9.108305 -0.517891 2.259804 -0.266151 1.285514 9.356475 0.216562 -1.405063 17.523310 0.047392 -0.663398 8.171623 -0.000001 0.000001 0.000005 -9.532507 -0.000006 -0.000001 -0.225031 -2.086049 17.044628 0.219214 -1.413394 17.630682 0.244830 -1.491616 18.641985 0.000001 0.000001 0.000004 -9.103609 -0.043113 -1.865101 -0.212038 -2.568867 22.357142 0.319601 -1.697126 21.328557 0.235456 -1.463550 18.278358 0.000000 0.000002 0.000004 -8.076692 -0.486716 -3.806300 0.006535 -4.059609 28.707189 0.211350 -1.388426 17.309272 0.189808 -1.317378 16.397469 -0.000003 -0.000001 0.000004 4.570405 11.014684 -2.160812 1.467910 -17.436549 -11.170201 2.658999 -23.463609 -67.456191 0.000001 -1.835908 0.000022 -33.763640 -0.567121 -4.512675 2.466094 -1.576203 2.681700 -0.662921 2.160404 4.832516 12.883751 26.401324 16.518983 2.647874 -1.528740 1.528740 -13.971057 2.843454 9.261852 1.998925 -1.154087 1.154074 0.000001 0.000001 -0.000000 9.109291 -0.518013 2.259901 0.319364 -0.063386 -10.082675 0.267697 1.752452 -17.370879 0.057595 0.820481 -8.033151 -0.000001 -0.000000 0.000004 9.533406 0.000001 -0.000001 0.003984 3.062866 -17.376298 0.265582 1.745612 -17.300907 0.297098 1.843784 -18.308080 0.000001 0.000001 0.000002 9.104493 -0.043004 -1.865100 0.176474 3.801209 -22.598576 0.391670 2.108084 -21.050667 0.287416 1.814224 -18.004087 0.000001 0.000000 0.000003 8.077805 -0.486896 -3.806301 0.695839 5.157314 -28.100438 0.274603 1.774356 -17.595192 0.247424 1.686313 -16.695277 -0.000001 -0.000000 0.000001 -8.207800 -6.751701 -1.599543 -2.278878 -9.956794 2.554871 7.321930 -9.015282 -3.027710 -2.905287 -0.199826 3.390446 -7.312438 -0.000010 -0.000001 0.000001 -0.000000 -0.000000 8.207799 -6.751687 -1.599543 -12.882592 15.850033 10.675066 12.223663 3.467960 2.706374 1.206318 0.524572 -5.942429 -4.928531 -0.000004 0.000001 0.000000 -0.000000 0.000000 
